inDegrees=yes
name=ik_S40_A04_T02
DataType=double
version=3
OpenSimVersion=4.3-2021-08-27-4bc7ad9
endheader
time	pelvis_tilt	pelvis_list	pelvis_rotation	pelvis_tx	pelvis_ty	pelvis_tz	hip_flexion_r	hip_adduction_r	hip_rotation_r	knee_angle_r	knee_angle_r_beta	ankle_angle_r	subtalar_angle_r	mtp_angle_r	hip_flexion_l	hip_adduction_l	hip_rotation_l	knee_angle_l	knee_angle_l_beta	ankle_angle_l	subtalar_angle_l	mtp_angle_l	lumbar_extension	lumbar_bending	lumbar_rotation	arm_flex_r	arm_add_r	arm_rot_r	elbow_flex_r	pro_sup_r	wrist_flex_r	wrist_dev_r	arm_flex_l	arm_add_l	arm_rot_l	elbow_flex_l	pro_sup_l	wrist_flex_l	wrist_dev_l
4.339999999999995	-24.32821389733125	-17.10368954318878	40.28428093067265	0	0.9399999999999999	0	63.39676980146321	-16.49648469189402	-11.86726592148526	43.07367254925941	0.751777406910476	0	0	0	63.01559648616351	-4.261885508705099	-11.89925673490966	38.97532079300567	0.6802476748589562	0	0	0	0	0	0	32.30516484175436	-32.30516484175436	4.676369084391195	85.80939085919239	85.3236311787668	0	0	32.30516484175436	-32.30516484175436	4.676369084391195	85.80939085919239	85.32363117871348	0	0
4.359999999999995	-23.63368515690368	-16.7297987147168	40.55875594024122	0	0.9399999999999999	0	60.94651822493775	-16.43109698947798	-12.71292036757176	41.36699518373363	0.7219902676127885	0	0	0	60.57946991252822	-4.472311967016249	-11.61315811858385	37.0121746056277	0.6459843101912371	0	0	0	0	0	0	32.30989718726421	-32.30989718726421	4.676609294459412	85.80879006534582	85.32339096870797	0	0	32.30989718726421	-32.30989718726421	4.676609294459412	85.80879006534582	85.32339096865468	0	0
4.379999999999995	-22.97493236338662	-16.32896923474218	40.74358530369543	0	0.9399999999999999	0	58.55624809783442	-16.38108216952018	-13.30190331697924	39.53540150519333	0.6900229273635458	0	0	0	58.16423356902463	-4.648981176173457	-11.45365754920609	35.03919035229086	0.6115492388805073	0	0	0	0	0	0	32.31559130819335	-32.31559130819335	4.676898413841095	85.80806694352259	85.32310184933753	0	0	32.31559130819335	-32.31559130819335	4.676898413841095	85.80806694352259	85.32310184928434	0	0
4.399999999999994	-22.64958606108649	-16.16483093515025	40.80546213949263	0	0.9399999999999999	0	56.57898451566079	-16.3234625353717	-13.73007680143083	37.63963470960082	0.656935554930474	0	0	0	56.16679025992856	-4.87330643825847	-11.30697597290636	33.49970925443218	0.5846802249506563	0	0	0	0	0	0	32.32040136078688	-32.32040136078688	4.677142701594394	85.80745595093074	85.32285756159381	0	0	32.32040136078688	-32.32040136078688	4.677142701594394	85.80745595093074	85.3228575615406	0	0
4.419999999999994	-22.09719510870327	-15.85616477585525	40.86919496989542	0	0.9399999999999999	0	54.36824057201761	-16.23507318722973	-14.08607511534348	35.72749223336422	0.6235623729529078	0	0	0	54.00128378785493	-5.21779533635305	-11.17171441552603	31.59349638120807	0.5514105340689944	0	0	0	0	0	0	32.32421986145492	-32.32421986145492	4.677336421359726	85.80697143497125	85.32266384183609	0	0	32.32421986145492	-32.32421986145492	4.677336421359726	85.80697143497125	85.3226638417829	0	0
4.439999999999993	-21.58470267684053	-15.59706423370623	40.86751004883714	0	0.9399999999999999	0	52.21011180654867	-16.09574733037889	-14.35324414806681	33.74194471676424	0.5889080313334415	0	0	0	51.90868763893992	-5.610423394606283	-11.10443239686355	30.15723413483527	0.526343028947699	0	0	0	0	0	0	32.32805975265355	-32.32805975265355	4.677531279075946	85.80648407286671	85.32246898412744	0	0	32.32805975265355	-32.32805975265355	4.677531279075946	85.80648407286671	85.32246898407429	0	0
4.459999999999993	-21.08705469797175	-15.32590789269981	40.86640294950546	0	0.9399999999999999	0	50.19396771325392	-15.90740504541656	-14.42864883476097	31.91407305132521	0.5570056524676181	0	0	0	49.88304261967909	-5.887859679609089	-11.10946651637974	27.69388226806128	0.4833494282373441	0	0	0	0	0	0	32.33203812786408	-32.33203812786408	4.677732885198234	85.80597983235563	85.32226737801307	0	0	32.33203812786408	-32.33203812786408	4.677732885198234	85.80597983235563	85.32226737795993	0	0
4.479999999999992	-20.56611070821269	-15.07242366049641	40.93445139308973	0	0.9399999999999999	0	48.17800080892554	-15.70573105628301	-14.47156527477853	30.03909009976625	0.524281026544153	0	0	0	47.87988032031517	-6.175702477605202	-10.99730734052107	25.68911637997918	0.4483596627586434	0	0	0	0	0	0	32.33500593284793	-32.33500593284793	4.677883125479156	85.80560406391298	85.32211713773799	0	0	32.33500593284793	-32.33500593284793	4.677883125479156	85.80560406391298	85.32211713768488	0	0
4.499999999999992	-20.01513592015798	-14.77620692265444	40.99235034146628	0	0.9399999999999999	0	46.11275032268144	-15.46819659092145	-14.49510358461469	28.08495708170638	0.4901749713570744	0	0	0	45.83502578609037	-6.385956246826863	-11.15800963637859	23.72063172505842	0.4140031242552918	0	0	0	0	0	0	32.3384550162703	-32.3384550162703	4.678057814633001	85.80516714597479	85.32194244859096	0	0	32.3384550162703	-32.3384550162703	4.678057814633001	85.80516714597479	85.32194244853785	0	0
4.519999999999992	-19.38827921444623	-14.46826132730198	41.10716927527793	0	0.9399999999999999	0	43.91946293484372	-15.21097582216964	-14.73777920831954	26.05554517870953	0.4547550517706157	0	0	0	43.80177064154127	-6.604408506858228	-11.11851931068619	21.77024201565066	0.379962402129111	0	0	0	0	0	0	32.34195022334794	-32.34195022334794	4.678234641258946	85.8047248820787	85.32176562197191	0	0	32.34195022334794	-32.34195022334794	4.678234641258946	85.8047248820787	85.32176562191884	0	0
4.539999999999991	-18.77054351139433	-14.17431450729103	41.24803791288038	0	0.9399999999999999	0	41.81596117826596	-15.05042857581972	-15.00161397345814	24.06752399879657	0.4200575365817519	0	0	0	41.82446725041664	-6.733304515096918	-11.07851436656579	19.82576691705051	0.3460249094354969	0	0	0	0	0	0	32.3457051002644	-32.3457051002644	4.678424573689154	85.8042498390859	85.32157568954915	0	0	32.3457051002644	-32.3457051002644	4.678424573689154	85.8042498390859	85.32157568949614	0	0
4.559999999999991	-18.19160467187038	-13.86608661302533	41.37532971314544	0	0.9399999999999999	0	39.78981995369043	-14.87705995303419	-15.09830518407082	22.19622511313195	0.3873972097380033	0	0	0	39.89469595167191	-6.82934493556052	-11.26892719118686	17.94793647550084	0.3132505854362762	0	0	0	0	0	0	32.34971501110009	-32.34971501110009	4.678627569229361	85.80374212369983	85.32137269401682	0	0	32.34971501110009	-32.34971501110009	4.678627569229361	85.80374212369983	85.32137269396382	0	0
4.57999999999999	-17.6058504694881	-13.57229679164648	41.47629017206796	0	0.9399999999999999	0	39.18258978403739	-14.71610316332903	-15.0579353625776	21.61267681101579	0.3772123705216538	0	0	0	38.03743392221877	-6.959706646994029	-11.42438840667174	16.1522422969115	0.2819098096609973	0	0	0	0	0	0	32.35442551904397	-32.35442551904397	4.678864950453207	85.80314840628026	85.32113531280227	0	0	32.35442551904397	-32.35442551904397	4.678864950453207	85.80314840628026	85.32113531274926	0	0
4.59999999999999	-17.0628945779398	-13.28914049726417	41.55875581555433	0	0.9399999999999999	0	38.57735193794022	-14.59694278204837	-15.11975886607318	21.27322726807958	0.3712878583530271	0	0	0	36.32243164438005	-7.104521819888502	-11.50924510895543	14.5497892121305	0.2539417272228289	0	0	0	0	0	0	32.35894255301485	-32.35894255301485	4.679091809029117	85.80258100758161	85.32090845423528	0	0	32.35894255301485	-32.35894255301485	4.679091809029117	85.80258100758161	85.3209084541823	0	0
4.619999999999989	-16.20773909116252	-12.86818459763696	41.68358201828018	0	0.9399999999999999	0	37.64820559751182	-14.37466365197902	-15.21846769384871	20.68304486385529	0.3609872322119771	0	0	0	34.4127749776477	-7.326420264143365	-11.39644468942926	13.10741959831749	0.2287676284310728	0	0	0	0	0	0	32.36668529062874	-32.36668529062874	4.679479189196985	85.8016121272486	85.32052107408248	0	0	32.36668529062874	-32.36668529062874	4.679479189196985	85.8016121272486	85.32052107402951	0	0
4.639999999999989	-15.59342244275986	-12.57813701883375	41.69838146974153	0	0.9399999999999999	0	33.31309164476024	-13.89505604186323	-14.89417202812854	16.72523589927735	0.2919104346151444	0	0	0	32.67898362645339	-7.514759399497795	-11.70172865531396	11.64361380682212	0.203219397759717	0	0	0	0	0	0	32.34649949882654	-32.34649949882654	4.678653281263258	85.80367773400874	85.3213469819854	0	0	32.34649949882654	-32.34649949882654	4.678653281263258	85.80367773400874	85.32134698193227	0	0
4.659999999999989	-14.99546079226609	-12.28776860294888	41.7081072441358	0	0.9399999999999999	0	30.46039763529952	-13.57513758410352	-15.04180475558318	14.21982022240594	0.2481826819226561	0	0	0	30.16718163009723	-7.742124818245335	-12.45225832786086	9.612901369074358	0.1677767795598182	0	0	0	0	0	0	32.35058309847074	-32.35058309847074	4.678860176456902	85.80316026512243	85.32114008679977	0	0	32.35058309847074	-32.35058309847074	4.678860176456902	85.80316026512243	85.32114008674668	0	0
4.679999999999988	-14.4478320943921	-12.01865041901104	41.73989598288406	0	0.9399999999999999	0	28.85783155883852	-13.31584511341538	-15.31085128896643	12.81995536600702	0.2237504310955373	0	0	0	29.5940868676544	-7.91402312119798	-12.48065896020631	9.169813044119211	0.1600434294122043	0	0	0	0	0	0	32.35635572675984	-32.35635572675984	4.679151034427551	85.80243279639397	85.32084922884049	0	0	32.35635572675984	-32.35635572675984	4.679151034427551	85.80243279639397	85.32084922878745	0	0
